<svg version="1.2" xmlns="http://www.w3.org/2000/svg" viewBox="0 0 800 800" width="8000" height="8000">
	<title>新建项目</title>
	<style>
		.s0 { fill: #bdd7ee;stroke: #2e75b6;stroke-width: 16 } 
		.s1 { fill: #ffffff;stroke: #ffffff;stroke-width: 2 } 
		.s2 { fill: #5b9bd5 } 
		.s3 { fill: #ffffff } 
	</style>
	<path id="Path 2" class="s0" d="m55.7 592.1l-1.7-379.6 341.2-196.5 327.4 192 1.8 379.6-341.2 196.5z"/>
	<path id="Path 3" class="s1" d="m372.4 492.8c-96.7-53.1-153.3-135.7-126.5-184.6 26.9-48.8 127-45.4 223.7 7.7-110.7-27.6-181.3 12.1-157.6 88.7 8.7 28.3 29.8 59.1 60.4 88.2z"/>
	<path id="Path 4" class="s1" d="m426.8 435.4c95.2 55.7 149.6 139.9 121.4 188-28.1 48.1-128.1 41.9-223.3-13.7 109.9 30.5 181.5-7.2 159.9-84.4-8-28.6-28.2-59.9-58-89.9z"/>
	<path id="R" class="s2" aria-label="R"  d="m471.7 518h-33.4l-33-53.9h-34.8v53.9h-29.7v-141.9h70.9q25.4 0 39.2 11 13.8 10.9 13.8 31.3 0 14.9-8.5 25.8-8.5 10.8-22.9 14.2zm-36.9-98.4q0-20.4-26.2-20.4h-38.1v41.9h38.9q12.5 0 18.9-5.7 6.5-5.6 6.5-15.8z"/>
	<path id="sasr" class="s3" aria-label="sasr"  d="m331 165.6q0 8.9-6.8 13.7-6.7 4.9-18.9 4.9-11.7 0-18.2-3.9-6.3-3.9-8.2-12.1l9.2-1.8q1.4 5.1 5.6 7.4 4.2 2.4 11.6 2.4 8 0 11.7-2.5 3.7-2.4 3.7-7.3 0-3.8-2.5-6.1-2.6-2.3-8.3-3.8l-7.5-2q-9.1-2.4-12.9-4.6-3.8-2.2-6-5.5-2.1-3.2-2.1-7.8 0-8.7 6.1-13.2 6.2-4.5 18-4.5 10.4 0 16.5 3.7 6.2 3.6 7.8 11.8l-9.4 1.1q-0.9-4.2-4.7-6.4-3.8-2.3-10.2-2.3-7.2 0-10.5 2.2-3.4 2.1-3.4 6.5 0 2.7 1.4 4.5 1.4 1.7 4.1 2.9 2.8 1.3 11.6 3.4 8.3 2.1 12 3.9 3.7 1.8 5.8 3.9 2.1 2.2 3.3 5 1.2 2.8 1.2 6.5zm28.4 18.6q-9.5 0-14.3-5-4.8-5.1-4.8-13.8 0-9.8 6.5-15.1 6.4-5.2 20.8-5.6l14.2-0.2v-3.4q0-7.7-3.3-11.1-3.3-3.3-10.3-3.3-7 0-10.2 2.4-3.3 2.4-3.9 7.6l-11-0.9q2.7-17.1 25.4-17.1 11.9 0 17.9 5.5 6 5.4 6 15.8v27.1q0 4.7 1.2 7.1 1.2 2.3 4.7 2.3 1.5 0 3.4-0.4v6.6q-4 0.9-8.1 0.9-5.8 0-8.5-3-2.6-3.1-3-9.7h-0.3q-4.1 7.3-9.4 10.3-5.3 3-13 3zm2.4-7.9q5.8 0 10.3-2.6 4.5-2.7 7-7.2 2.7-4.6 2.7-9.5v-5.1l-11.5 0.2q-7.4 0.1-11.3 1.5-3.8 1.4-5.8 4.3-2.1 2.9-2.1 7.7 0 5.1 2.8 7.9 2.8 2.8 7.9 2.8zm95.3-10.7q0 8.9-6.7 13.7-6.8 4.9-18.9 4.9-11.8 0-18.2-3.9-6.3-3.9-8.3-12.1l9.3-1.8q1.3 5.1 5.5 7.4 4.2 2.4 11.7 2.4 8 0 11.7-2.5 3.7-2.4 3.7-7.3 0-3.8-2.6-6.1-2.5-2.3-8.2-3.8l-7.6-2q-9-2.4-12.9-4.6-3.7-2.2-5.9-5.5-2.2-3.2-2.2-7.8 0-8.7 6.2-13.2 6.1-4.5 17.9-4.5 10.5 0 16.6 3.7 6.2 3.6 7.8 11.8l-9.4 1.1q-0.9-4.2-4.8-6.4-3.8-2.3-10.2-2.3-7.1 0-10.5 2.2-3.4 2.1-3.4 6.5 0 2.7 1.4 4.5 1.4 1.7 4.2 2.9 2.7 1.3 11.5 3.4 8.4 2.1 12.1 3.9 3.6 1.8 5.7 3.9 2.2 2.2 3.4 5 1.1 2.8 1.1 6.5zm23.1 17.4h-10.5v-48.4q0-6.7-0.3-14.7h9.9q0.5 10.7 0.5 12.9h0.2q2.5-8.1 5.8-11.1 3.2-3 9.2-3 2.1 0 4.2 0.6v9.6q-2.1-0.6-5.6-0.6-6.5 0-9.9 5.7-3.5 5.6-3.5 16.1z"/>
</svg>